<svg width="30" height="35" viewBox="0 0 30 35" fill="none" xmlns="http://www.w3.org/2000/svg">
<path id="Vector" d="M9.00832 34.3301C8.18256 34.3301 7.47566 34.0009 6.88761 33.3425C6.29957 32.6841 6.00555 31.8926 6.00555 30.968C6.00555 30.0434 6.29957 29.2519 6.88761 28.5934C7.47566 27.935 8.18256 27.6058 9.00832 27.6058C9.83409 27.6058 10.541 27.935 11.129 28.5934C11.7171 29.2519 12.0111 30.0434 12.0111 30.968C12.0111 31.8926 11.7171 32.6841 11.129 33.3425C10.541 34.0009 9.83409 34.3301 9.00832 34.3301ZM24.0222 34.3301C23.1964 34.3301 22.4895 34.0009 21.9015 33.3425C21.3134 32.6841 21.0194 31.8926 21.0194 30.968C21.0194 30.0434 21.3134 29.2519 21.9015 28.5934C22.4895 27.935 23.1964 27.6058 24.0222 27.6058C24.848 27.6058 25.5549 27.935 26.1429 28.5934C26.7309 29.2519 27.025 30.0434 27.025 30.968C27.025 31.8926 26.7309 32.6841 26.1429 33.3425C25.5549 34.0009 24.848 34.3301 24.0222 34.3301ZM7.73214 7.4327L11.3355 15.8382H21.8452L25.974 7.4327H7.73214ZM6.30583 4.07052H28.4513C29.0268 4.07052 29.4647 4.35771 29.765 4.93208C30.0653 5.50645 30.0778 6.08783 29.8025 6.67621L24.4726 17.4352C24.1974 17.9956 23.8283 18.4298 23.3653 18.738C22.9024 19.0462 22.3957 19.2003 21.8452 19.2003H10.6598L9.00832 22.5625H27.025V25.9247H9.00832C7.88228 25.9247 7.0315 25.3713 6.45597 24.2646C5.88043 23.1579 5.85541 22.0582 6.3809 20.9655L8.40777 16.8468L3.00277 4.07052H0V0.708344H4.87951L6.30583 4.07052Z" fill="black"/>
</svg>
