<svg width="60" height="60" viewBox="0 0 60 60" fill="none" xmlns="http://www.w3.org/2000/svg">
<path id="Vector" d="M26.9999 45H32.9999V33H44.9999V27H32.9999V15H26.9999V27H14.9999V33H26.9999V45ZM29.9999 60C25.8499 60 21.9499 59.2125 18.2999 57.6375C14.6499 56.0625 11.4749 53.925 8.77494 51.225C6.07494 48.525 3.93744 45.35 2.36244 41.7C0.787439 38.05 -6.10352e-05 34.15 -6.10352e-05 30C-6.10352e-05 25.85 0.787439 21.95 2.36244 18.3C3.93744 14.65 6.07494 11.475 8.77494 8.775C11.4749 6.075 14.6499 3.9375 18.2999 2.3625C21.9499 0.7875 25.8499 0 29.9999 0C34.1499 0 38.0499 0.7875 41.6999 2.3625C45.3499 3.9375 48.5249 6.075 51.2249 8.775C53.9249 11.475 56.0624 14.65 57.6374 18.3C59.2124 21.95 59.9999 25.85 59.9999 30C59.9999 34.15 59.2124 38.05 57.6374 41.7C56.0624 45.35 53.9249 48.525 51.2249 51.225C48.5249 53.925 45.3499 56.0625 41.6999 57.6375C38.0499 59.2125 34.1499 60 29.9999 60ZM29.9999 54C36.6999 54 42.3749 51.675 47.0249 47.025C51.6749 42.375 53.9999 36.7 53.9999 30C53.9999 23.3 51.6749 17.625 47.0249 12.975C42.3749 8.325 36.6999 6 29.9999 6C23.2999 6 17.6249 8.325 12.9749 12.975C8.32494 17.625 5.99994 23.3 5.99994 30C5.99994 36.7 8.32494 42.375 12.9749 47.025C17.6249 51.675 23.2999 54 29.9999 54Z" fill="black"/>
</svg>
