<svg width="17" height="16" viewBox="0 0 17 16" fill="none" xmlns="http://www.w3.org/2000/svg">
<path d="M1.66667 16C1.20833 16 0.815972 15.8042 0.489583 15.4125C0.163194 15.0208 0 14.55 0 14V2C0 1.45 0.163194 0.979167 0.489583 0.5875C0.815972 0.195833 1.20833 0 1.66667 0H15C15.4583 0 15.8507 0.195833 16.1771 0.5875C16.5035 0.979167 16.6667 1.45 16.6667 2V14C16.6667 14.55 16.5035 15.0208 16.1771 15.4125C15.8507 15.8042 15.4583 16 15 16H1.66667ZM8.33333 9L1.66667 4V14H15V4L8.33333 9ZM8.33333 7L15 2H1.66667L8.33333 7ZM1.66667 4V2V14V4Z" fill="black"/>
</svg>
